<?xml version="1.0" encoding="UTF-8"?>
<!DOCTYPE svg PUBLIC "-//W3C//DTD SVG 1.1//EN" "http://www.w3.org/Graphics/SVG/1.1/DTD/svg11.dtd">
<!-- Creator: CorelDRAW -->
<svg xmlns="http://www.w3.org/2000/svg" xml:space="preserve" width="135.465mm" height="135.467mm" style="shape-rendering:geometricPrecision; text-rendering:geometricPrecision; image-rendering:optimizeQuality; fill-rule:evenodd; clip-rule:evenodd"
viewBox="0 0 135.465 135.467"
 xmlns:xlink="http://www.w3.org/1999/xlink"
 version="1.1">
 <defs>
  <style type="text/css">
   <![CDATA[
    .fil0 {fill:white}
   ]]>
  </style>
 </defs>
 <g id="Réteg_x0020_1">
  <metadata id="CorelCorpID_0Corel-Layer"/>
  <g id="_207732360">
   <g>
    <path id="_208657600" class="fil0" d="M101.594 0.0291l-17.5668 -0.0282c-19.7357,0 -32.4898,13.0852 -32.4898,33.3382l0 15.3711 -17.6626 0c-1.5263,0 -2.7622,1.2374 -2.7622,2.7636l0 22.271c0,1.5263 1.2374,2.7622 2.7622,2.7622l17.6626 0 0 56.1969c0,1.5263 1.2359,2.7622 2.7622,2.7622l23.0448 0c1.5263,0 2.7622,-1.2374 2.7622,-2.7622l0 -56.1969 20.6517 0c1.5263,0 2.7622,-1.2359 2.7622,-2.7622l0.0085 -22.271c0,-0.7328 -0.2917,-1.4347 -0.8089,-1.9533 -0.5172,-0.5186 -1.2219,-0.8103 -1.9547,-0.8103l-20.6588 0 0 -13.0303c0,-6.2629 1.4924,-9.4422 9.6508,-9.4422l11.8338 -0.0042c1.5249,0 2.7608,-1.2374 2.7608,-2.7622l0 -20.68c0,-1.5235 -1.2345,-2.7594 -2.758,-2.7622z"/>
   </g>
   <g>
   </g>
   <g>
   </g>
   <g>
   </g>
   <g>
   </g>
   <g>
   </g>
   <g>
   </g>
   <g>
   </g>
   <g>
   </g>
   <g>
   </g>
   <g>
   </g>
   <g>
   </g>
   <g>
   </g>
   <g>
   </g>
   <g>
   </g>
   <g>
   </g>
  </g>
 </g>
</svg>
