<?xml version="1.0" encoding="UTF-8"?>
<!DOCTYPE svg PUBLIC "-//W3C//DTD SVG 1.1//EN" "http://www.w3.org/Graphics/SVG/1.1/DTD/svg11.dtd">
<!-- Creator: CorelDRAW X8 -->
<svg xmlns="http://www.w3.org/2000/svg" xml:space="preserve" width="62.457mm" height="11.077mm" version="1.1" style="shape-rendering:geometricPrecision; text-rendering:geometricPrecision; image-rendering:optimizeQuality; fill-rule:evenodd; clip-rule:evenodd"
viewBox="0 0 6246 1108"
 xmlns:xlink="http://www.w3.org/1999/xlink">
 <defs>
  <style type="text/css">
   <![CDATA[
    .fil0 {fill:#99CC00}
    .fil1 {fill:#FEFEFE;fill-rule:nonzero}
   ]]>
  </style>
 </defs>
 <g id="Layer_x0020_1">
  <metadata id="CorelCorpID_0Corel-Layer"/>
  <path class="fil0" d="M423 0c-111,0 -161,33 -191,78 -29,45 -137,240 -164,296 -37,72 -39,120 -16,138 0,0 -75,40 -45,212 0,0 16,-46 28,-30 0,0 -38,162 120,292 0,0 13,-47 20,-52 14,76 120,208 220,158 4,12 17,17 28,15 11,2 23,-3 27,-15 101,50 206,-82 221,-158 7,5 20,52 20,52 158,-130 120,-292 120,-292 11,-16 27,30 27,30 31,-172 -44,-212 -44,-212 22,-18 21,-66 -16,-138 -28,-56 -135,-251 -165,-296 -29,-45 -80,-78 -190,-78zm-150 535c-13,-2 -24,-2 -33,-2 -2,13 0,31 17,48 27,27 72,11 89,-12 -11,-9 -22,-15 -32,-20 -2,8 -7,22 -24,16 -24,-9 -20,-25 -17,-30zm300 0c13,-2 24,-2 32,-2 2,13 1,31 -16,48 -27,27 -73,11 -89,-12 10,-9 21,-15 32,-20 1,8 6,22 24,16 24,-9 20,-25 17,-30zm-328 318c76,-11 203,-35 351,42 8,-35 5,-72 -4,-105 -15,-56 -59,-81 -58,-96 4,-38 107,-20 127,-106 17,-78 -71,-184 -182,-104 -17,12 -36,19 -56,22 -20,-3 -39,-10 -56,-22 -111,-80 -200,26 -182,104 19,86 123,68 126,106 2,15 -42,40 -57,96 -6,20 -9,42 -9,63zm347 55c-138,-32 -264,-18 -340,-4 17,57 65,105 171,105 103,0 152,-46 169,-101zm-169 -354c10,0 19,0 30,-1 44,-3 66,-59 111,-60 33,-1 77,24 60,87 -10,35 -43,41 -63,40 -26,-2 -63,-31 -79,-33 -16,-3 -38,-4 -59,-4 -22,0 -44,1 -59,4 -16,2 -53,31 -79,33 -20,1 -54,-5 -63,-40 -17,-63 27,-88 60,-87 45,1 67,57 111,60 10,1 20,1 30,1zm1 198c4,-16 31,-59 49,-62 33,-6 42,35 14,55 -13,10 -64,14 -63,7zm-3 0c-3,-16 -30,-59 -49,-62 -32,-6 -41,35 -14,55 14,10 64,14 63,7z"/>
  <path class="fil1" d="M1380 924l-104 0c-51,0 -91,-13 -119,-41 -28,-27 -42,-66 -42,-118l0 -309c0,-52 14,-91 42,-119 28,-27 68,-41 119,-41l104 0c51,0 90,14 118,42 28,28 42,67 42,118l0 29c0,14 -7,21 -20,21l-83 0c-14,0 -21,-7 -21,-21l0 -24c0,-20 -4,-35 -13,-44 -8,-9 -23,-13 -44,-13l-63 0c-20,0 -35,4 -44,13 -8,9 -13,24 -13,44l0 298c0,21 5,36 13,45 9,9 24,13 44,13l63 0c21,0 36,-4 44,-13 9,-9 13,-24 13,-45l0 -61c0,-7 -4,-11 -11,-11l-58 0c-14,0 -21,-7 -21,-20l0 -67c0,-14 7,-20 21,-20l171 0c15,0 22,7 22,22l0 163c0,51 -14,90 -42,118 -28,28 -67,41 -118,41zm448 -107l69 0c21,0 36,-4 45,-13 9,-9 13,-24 13,-45l0 -298c0,-20 -4,-35 -13,-44 -9,-9 -24,-13 -45,-13l-69 0c-21,0 -35,4 -44,13 -8,9 -13,24 -13,44l0 298c0,21 5,36 13,45 9,9 23,13 44,13zm90 107l-109 0c-52,0 -92,-13 -120,-41 -28,-27 -42,-66 -42,-118l0 -309c0,-52 14,-91 42,-119 28,-27 68,-41 120,-41l109 0c51,0 91,14 119,41 28,28 42,67 42,119l0 309c0,52 -14,91 -42,118 -28,28 -68,41 -119,41zm382 0l-83 0c-14,0 -21,-6 -21,-20l0 -587c0,-14 7,-21 21,-21l232 0c51,0 91,14 119,42 29,28 43,68 43,119l0 76c0,73 -29,122 -87,146l0 4 105 218c6,16 0,23 -17,23l-79 0c-12,0 -20,-1 -25,-4 -5,-2 -10,-8 -13,-16l-98 -211 -65 0c-8,0 -12,3 -12,11l0 200c0,14 -7,20 -20,20zm31 -331l96 0c21,0 36,-4 46,-13 9,-9 14,-23 14,-42l0 -77c0,-20 -5,-34 -14,-43 -10,-10 -25,-14 -46,-14l-96 0c-7,0 -11,3 -11,11l0 168c0,7 4,10 11,10zm528 -276l0 587c0,14 -7,20 -20,20l-83 0c-14,0 -21,-6 -21,-20l0 -587c0,-14 7,-21 21,-21l83 0c13,0 20,7 20,21zm474 607l-321 0c-14,0 -21,-6 -21,-20l0 -587c0,-14 7,-21 21,-21l83 0c13,0 20,7 20,21l0 488c0,7 4,11 12,11l206 0c13,0 19,7 19,21l0 67c0,14 -6,20 -19,20zm438 0l-321 0c-14,0 -20,-6 -20,-20l0 -587c0,-14 6,-21 20,-21l83 0c14,0 21,7 21,21l0 488c0,7 3,11 11,11l206 0c13,0 20,7 20,21l0 67c0,14 -7,20 -20,20zm162 0l-93 0c-12,0 -16,-6 -12,-20l154 -587c5,-14 15,-21 30,-21l129 0c17,0 26,7 30,21l154 587c4,14 0,20 -12,20l-93 0c-8,0 -13,-1 -15,-4 -3,-3 -5,-8 -6,-16l-27 -108 -191 0 -27 108c-1,8 -3,13 -6,16 -3,3 -8,4 -15,4zm142 -509l-70 282 144 0 -70 -282 -4 0zm807 509l-104 0c-51,0 -91,-13 -119,-41 -28,-27 -42,-66 -42,-118l0 -309c0,-52 14,-91 42,-119 28,-27 68,-41 119,-41l104 0c50,0 90,14 118,42 28,28 42,67 42,118l0 29c0,14 -7,21 -21,21l-83 0c-13,0 -20,-7 -20,-21l0 -24c0,-20 -5,-35 -13,-44 -8,-9 -23,-13 -44,-13l-63 0c-21,0 -35,4 -44,13 -9,9 -13,24 -13,44l0 298c0,21 4,36 13,45 9,9 23,13 44,13l63 0c21,0 36,-4 44,-13 8,-9 13,-24 13,-45l0 -61c0,-7 -4,-11 -11,-11l-59 0c-13,0 -20,-7 -20,-20l0 -67c0,-14 7,-20 20,-20l171 0c15,0 23,7 23,22l0 163c0,51 -14,90 -42,118 -28,28 -68,41 -118,41zm507 0l-83 0c-13,0 -20,-6 -20,-20l0 -209 -179 -377c-2,-6 -2,-11 1,-15 3,-4 7,-7 13,-7l103 0c11,0 19,7 24,21l97 237 7 0 96 -237c4,-14 12,-21 23,-21l104 0c6,0 11,2 14,6 3,4 3,9 0,16l-179 377 0 209c0,14 -7,20 -21,20zm692 -628l144 0c14,0 21,7 21,21l0 587c0,14 -7,20 -21,20l-80 0c-14,0 -20,-6 -20,-20l0 -463 -4 0 -100 327c-4,13 -12,20 -24,20l-82 0c-13,0 -21,-7 -25,-20l-101 -328 -4 0 0 464c0,8 -2,13 -4,16 -3,3 -8,4 -17,4l-80 0c-13,0 -20,-6 -20,-20l0 -587c0,-14 7,-21 20,-21l146 0c9,0 15,5 18,14l104 345 6 0 104 -345c2,-9 8,-14 19,-14z"/>
 </g>
</svg>
