<?xml version="1.0" encoding="UTF-8"?>
<!DOCTYPE svg PUBLIC "-//W3C//DTD SVG 1.1//EN" "http://www.w3.org/Graphics/SVG/1.1/DTD/svg11.dtd">
<!-- Creator: CorelDRAW -->
<svg xmlns="http://www.w3.org/2000/svg" xml:space="preserve" width="135.465mm" height="135.467mm" style="shape-rendering:geometricPrecision; text-rendering:geometricPrecision; image-rendering:optimizeQuality; fill-rule:evenodd; clip-rule:evenodd"
viewBox="0 0 135.465 135.467"
 xmlns:xlink="http://www.w3.org/1999/xlink"
 version="1.1">
 <defs>
  <style type="text/css">
   <![CDATA[
    .fil0 {fill:white}
   ]]>
  </style>
 </defs>
 <g id="Réteg_x0020_1">
  <metadata id="CorelCorpID_0Corel-Layer"/>
  <g id="_207200440">
   <g>
    <path id="_207201400" class="fil0" d="M7.1861 34.3888c0,11.2898 3.7703,19.4396 11.2051,24.2289 6.0848,3.9215 13.1538,4.5065 16.8243,4.5065 0.8919,0 1.6055,-0.0333 2.1059,-0.0665 0,0 -1.1656,7.5829 4.4582,15.0887l-0.254 -0.003c-9.7448,0.003 -41.5263,2.0378 -41.5263,28.1655 0,26.5842 29.1904,27.9342 35.0455,27.9342 0.4581,0 0.7256,-0.0091 0.7256,-0.0091 0.065,0 0.4838,0.0166 1.1958,0.0166 3.7582,0 13.4727,-0.4717 22.4934,-4.8573 11.7008,-5.6827 17.639,-15.5605 17.639,-29.3658 0,-13.3412 -9.0433,-21.2809 -15.6465,-27.0846 -4.0303,-3.5345 -7.5119,-6.5882 -7.5119,-9.5572 0,-3.025 2.5428,-5.2987 5.7583,-8.1786 5.2079,-4.6577 10.115,-11.2867 10.115,-23.8177 0,-11.0161 -1.4286,-18.4101 -10.2284,-23.1011 0.9176,-0.4702 4.1603,-0.8118 5.7657,-1.034 4.771,-0.6515 11.7478,-1.3907 11.7478,-5.285l0 -0.7529 -34.7612 0c-0.3492,0.0091 -35.1513,1.2986 -35.1513,33.1724zm56.1118 68.1256c0.6637,10.6322 -8.4295,18.4766 -22.0822,19.4699 -13.8688,1.0129 -25.2871,-5.2307 -25.9508,-15.8477 -0.322,-5.1007 1.9214,-10.1046 6.3131,-14.0835 4.4551,-4.0349 10.5702,-6.5217 17.2234,-7.013 0.7861,-0.0499 1.5647,-0.0816 2.3417,-0.0816 12.8333,-0.0001 21.5259,7.542 22.1548,17.5559zm-9.0766 -75.4001c3.4105,11.9942 -1.7385,24.5342 -9.9443,26.8472 -0.9418,0.2646 -1.9199,0.4006 -2.9056,0.4006 -7.5179,0 -14.9664,-7.6056 -17.7253,-18.0806 -1.542,-5.8868 -1.418,-11.0297 0.3507,-15.9762 1.7385,-4.8663 4.8603,-8.1529 8.7893,-9.258 0.9448,-0.2676 1.9245,-0.4036 2.9086,-0.4036 9.0782,-0.0015 14.9135,3.7628 18.5266,16.4706zm58.5682 26.1215l0 -22.6763 -14.3616 0.0001 0 22.6763 -22.6763 -0.0001 0 14.3616 22.6763 0 0 22.6763 14.3616 0 0 -22.6763 22.6763 0 0 -14.3616 -22.6763 0z"/>
   </g>
   <g>
   </g>
   <g>
   </g>
   <g>
   </g>
   <g>
   </g>
   <g>
   </g>
   <g>
   </g>
   <g>
   </g>
   <g>
   </g>
   <g>
   </g>
   <g>
   </g>
   <g>
   </g>
   <g>
   </g>
   <g>
   </g>
   <g>
   </g>
   <g>
   </g>
  </g>
 </g>
</svg>
