<?xml version="1.0" encoding="UTF-8"?>
<!DOCTYPE svg PUBLIC "-//W3C//DTD SVG 1.1//EN" "http://www.w3.org/Graphics/SVG/1.1/DTD/svg11.dtd">
<!-- Creator: CorelDRAW -->
<svg xmlns="http://www.w3.org/2000/svg" xml:space="preserve" width="135.465mm" height="135.467mm" style="shape-rendering:geometricPrecision; text-rendering:geometricPrecision; image-rendering:optimizeQuality; fill-rule:evenodd; clip-rule:evenodd"
viewBox="0 0 135.465 135.467"
 xmlns:xlink="http://www.w3.org/1999/xlink"
 version="1.1">
 <defs>
  <style type="text/css">
   <![CDATA[
    .fil0 {fill:white}
   ]]>
  </style>
 </defs>
 <g id="Réteg_x0020_1">
  <metadata id="CorelCorpID_0Corel-Layer"/>
  <g id="_208308576">
   <g>
    <path id="LinkedIn" class="fil0" d="M135.466 82.3737l0 50.0829 -29.0349 0 0 -46.7286c0,-11.7386 -4.1996,-19.7497 -14.7093,-19.7497 -8.0228,0 -12.7972,5.3988 -14.8976,10.6214 -0.766,1.867 -0.9631,4.4657 -0.9631,7.0792l0.0001 48.7777 -29.0446 0c0,0 0.3912,-79.1429 0,-87.3427l29.0417 0 0 12.3805c-0.0589,0.0926 -0.1354,0.1924 -0.1909,0.2822l0.1909 0 0 -0.2822c3.8585,-5.9428 10.7493,-14.4324 26.1732,-14.4324 19.1092,-0.0003 33.4345,12.4835 33.4345,39.3117zm-119.031 -79.3633c-9.9362,0 -16.4352,6.5173 -16.4352,15.0878 0,8.3837 6.311,15.0988 16.0497,15.0988l0.194 0.0001c10.1286,0 16.4276,-6.7139 16.4276,-15.0988 -0.1909,-8.5706 -6.2991,-15.0879 -16.2361,-15.0879zm-14.7102 129.446l29.0336 0 0 -87.3427 -29.0336 0 0 87.3427z"/>
   </g>
   <g>
   </g>
   <g>
   </g>
   <g>
   </g>
   <g>
   </g>
   <g>
   </g>
   <g>
   </g>
   <g>
   </g>
   <g>
   </g>
   <g>
   </g>
   <g>
   </g>
   <g>
   </g>
   <g>
   </g>
   <g>
   </g>
   <g>
   </g>
   <g>
   </g>
  </g>
 </g>
</svg>
