<?xml version="1.0" encoding="UTF-8"?>
<!DOCTYPE svg PUBLIC "-//W3C//DTD SVG 1.1//EN" "http://www.w3.org/Graphics/SVG/1.1/DTD/svg11.dtd">
<!-- Creator: CorelDRAW -->
<svg xmlns="http://www.w3.org/2000/svg" xml:space="preserve" width="135.465mm" height="135.467mm" style="shape-rendering:geometricPrecision; text-rendering:geometricPrecision; image-rendering:optimizeQuality; fill-rule:evenodd; clip-rule:evenodd"
viewBox="0 0 135.465 135.467"
 xmlns:xlink="http://www.w3.org/1999/xlink"
 version="1.1">
 <defs>
  <style type="text/css">
   <![CDATA[
    .fil0 {fill:white}
   ]]>
  </style>
 </defs>
 <g id="Réteg_x0020_1">
  <metadata id="CorelCorpID_0Corel-Layer"/>
  <path class="fil0" d="M135.466 25.7338c-4.9859,2.2093 -10.3358,3.7076 -15.9567,4.3765 5.7394,-3.4369 10.1328,-8.8883 12.215,-15.3642 -5.3837,3.1828 -11.3263,5.4939 -17.6583,6.7468 -5.0705,-5.4091 -12.2828,-8.7783 -20.2824,-8.7783 -15.3471,0 -27.7908,12.4437 -27.7908,27.7824 0,2.1754 0.2455,4.3002 0.7196,6.332 -23.0924,-1.1599 -43.5694,-12.2237 -57.2743,-29.0355 -2.3957,4.0972 -3.7585,8.8713 -3.7585,13.9675 0,9.6418 4.9098,18.1492 12.3591,23.1265 -4.5543,-0.1523 -8.8377,-1.4051 -12.5876,-3.4876l0 0.3471c0,13.4595 9.5825,24.6925 22.2885,27.2491 -2.3279,0.6264 -4.7827,0.9735 -7.3223,0.9735 -1.7945,0 -3.5299,-0.1777 -5.2314,-0.5164 3.5383,11.047 13.7981,19.0802 25.954,19.3005 -9.5064,7.4493 -21.4929,11.8766 -34.5121,11.8766 -2.2432,0 -4.4527,-0.1355 -6.6281,-0.3809 12.2998,7.898 26.9021,12.503 42.5963,12.503 51.1204,0 79.0637,-42.3424 79.0637,-79.0637l-0.0932 -3.5976c5.4599,-3.8945 10.1833,-8.7873 13.8995,-14.3573z"/>
 </g>
</svg>
