<?xml version="1.0" encoding="UTF-8"?>
<!DOCTYPE svg PUBLIC "-//W3C//DTD SVG 1.1//EN" "http://www.w3.org/Graphics/SVG/1.1/DTD/svg11.dtd">
<!-- Creator: CorelDRAW -->
<svg xmlns="http://www.w3.org/2000/svg" xml:space="preserve" width="135.465mm" height="135.467mm" style="shape-rendering:geometricPrecision; text-rendering:geometricPrecision; image-rendering:optimizeQuality; fill-rule:evenodd; clip-rule:evenodd"
viewBox="0 0 135.465 135.467"
 xmlns:xlink="http://www.w3.org/1999/xlink"
 version="1.1">
 <defs>
  <style type="text/css">
   <![CDATA[
    .fil0 {fill:white}
   ]]>
  </style>
 </defs>
 <g id="Réteg_x0020_1">
  <metadata id="CorelCorpID_0Corel-Layer"/>
  <g id="_207201808">
   <g>
    <path id="_207201424" class="fil0" d="M133.125 35.7116c-1.6585,-7.2044 -7.5512,-12.5196 -14.6451,-13.3124 -16.7986,-1.8752 -33.8013,-1.885 -50.7257,-1.8752 -16.9272,-0.0098 -33.9327,0 -50.7313,1.8752 -7.0897,0.7929 -12.9782,6.1081 -14.6367,13.3124 -2.3605,10.2598 -2.387,21.4593 -2.387,32.0226 0,10.5633 0,21.7614 2.3604,32.0198 1.6557,7.203 7.5456,12.5182 14.6395,13.3124 16.7972,1.8766 33.8013,1.8864 50.7285,1.8766 16.93,0.0098 33.9299,0 50.7257,-1.8766 7.0897,-0.7929 12.9838,-6.1081 14.6423,-13.3124 2.3618,-10.2598 2.3702,-21.4579 2.3702,-32.0198 0,-10.5633 0.0196,-21.7628 -2.3408,-32.0226zm-82.8742 53.0484c0,-14.9849 0,-29.8132 0,-44.7994 14.357,7.491 28.619,14.9317 43.0669,22.4689 -14.4032,7.4701 -28.6721,14.866 -43.0669,22.3305z"/>
   </g>
   <g>
   </g>
   <g>
   </g>
   <g>
   </g>
   <g>
   </g>
   <g>
   </g>
   <g>
   </g>
   <g>
   </g>
   <g>
   </g>
   <g>
   </g>
   <g>
   </g>
   <g>
   </g>
   <g>
   </g>
   <g>
   </g>
   <g>
   </g>
   <g>
   </g>
  </g>
 </g>
</svg>
